<svg width="977" height="273" viewBox="0 0 977 273" fill="none" xmlns="http://www.w3.org/2000/svg">
<path d="M201.203 269H197.703L17.8033 18.4V243.1C17.8033 257.45 23.4033 265.85 31.4533 267.25V269H0.653321V267.25C8.70332 265.85 14.3033 257.45 14.3033 243.1V29.25C14.3033 14.9 8.70332 6.49998 0.653321 5.1V3.34998H31.8033L197.703 234V29.25C197.703 14.9 192.103 6.49998 184.053 5.1V3.34998H214.853V5.1C206.803 6.49998 201.203 14.9 201.203 29.25V269ZM221.974 136C221.974 45 293.374 0.199998 365.824 0.199998C438.274 0.199998 509.674 44.65 509.674 136C509.674 228.05 438.624 272.5 365.824 272.5C293.374 272.5 221.974 228.05 221.974 136ZM242.974 136.35C242.974 221.4 296.524 268.65 365.824 268.65C435.124 268.65 489.024 221.75 489.024 136.35C489.024 50.6 435.124 4.04999 365.824 4.04999C296.874 4.04999 242.974 50.95 242.974 136.35ZM419.374 134.6V136.7C393.474 136.7 373.524 139.85 373.524 170.3H372.124C372.124 141.95 352.524 136.7 328.024 136.7V134.6C352.524 134.6 371.774 129.35 371.774 101H373.874C373.874 131.45 393.474 134.6 419.374 134.6ZM701.23 215.1L631.58 52C633.33 104.85 617.93 271.8 553.88 271.8C530.78 271.8 516.78 250.45 516.78 225.6C516.78 159.8 614.08 97.5 616.88 29.25C616.88 15.6 606.38 13.15 593.78 13.15V11.4C605.68 11.4 613.03 6.85 628.08 3.69999C629.48 3.34998 630.88 3.34998 631.93 3.34998L722.58 214.4C730.98 235.4 747.78 260.6 758.98 267.25V269H697.73V267.25C711.73 257.1 706.83 228.4 701.23 215.1ZM628.08 43.6L620.73 26.45C620.03 102.4 525.18 161.9 525.18 220.35C525.18 242.05 538.48 252.55 554.58 252.55C617.58 252.55 629.48 90.85 628.08 43.6ZM796.318 29.25V128.65C850.918 124.1 885.918 73 942.268 70.2V29.25C942.268 14.9 936.668 6.49998 928.618 5.1V3.34998H976.218V5.1C968.168 6.49998 962.568 14.9 962.568 29.25V243.1C962.568 257.45 968.168 265.85 976.218 267.25V269H928.618V267.25C936.668 265.85 942.268 257.45 942.268 243.1V74.4C885.918 77.2 852.318 130.05 796.318 133.2V243.1C796.318 257.45 801.918 265.85 809.968 267.25V269H762.368V267.25C770.418 265.85 776.018 257.45 776.018 243.1V29.25C776.018 14.9 770.418 6.49998 762.368 5.1V3.34998H809.968V5.1C801.918 6.49998 796.318 14.9 796.318 29.25Z" fill="white"/>
</svg>
